<svg width="25" height="26" viewBox="0 0 25 26" fill="none" xmlns="http://www.w3.org/2000/svg">
<path id="Vector" d="M23.4375 25.5C20.7523 25.5 18.015 24.8519 15.2257 23.5556C12.4363 22.2593 9.84954 20.419 7.46528 18.0347C5.08102 15.6505 3.24074 13.0637 1.94444 10.2743C0.648148 7.48495 0 4.74769 0 2.0625C0 1.62269 0.150463 1.25231 0.451389 0.951389C0.752315 0.650463 1.12269 0.5 1.5625 0.5H6.42361C6.74769 0.5 7.02546 0.615741 7.25694 0.847222C7.48843 1.0787 7.65046 1.36806 7.74306 1.71528L8.68056 6.09028C8.72685 6.41435 8.72107 6.70949 8.66319 6.97569C8.60532 7.2419 8.4838 7.46759 8.29861 7.65278L4.82639 11.1597C5.42824 12.1782 6.06482 13.1273 6.73611 14.0069C7.40741 14.8866 8.14815 15.7199 8.95833 16.5069C9.81482 17.3866 10.7176 18.191 11.6667 18.9201C12.6157 19.6493 13.6111 20.2917 14.6528 20.8472L17.9514 17.4444C18.1829 17.1898 18.4491 17.0162 18.75 16.9236C19.0509 16.831 19.3519 16.8079 19.6528 16.8542L23.7847 17.7569C24.1319 17.8495 24.4213 18.0347 24.6528 18.3125C24.8843 18.5903 25 18.9028 25 19.25V23.9375C25 24.3773 24.8495 24.7477 24.5486 25.0486C24.2477 25.3495 23.8773 25.5 23.4375 25.5Z" fill="url(#paint0_linear_34_198)"/>
<defs>
<linearGradient id="paint0_linear_34_198" x1="31" y1="13" x2="-10" y2="13" gradientUnits="userSpaceOnUse">
<stop stop-color="#A042C6"/>
<stop offset="1" stop-color="#7772BD"/>
</linearGradient>
</defs>
</svg>
