<svg width="25" height="32" viewBox="0 0 25 32" fill="none" xmlns="http://www.w3.org/2000/svg">
<path id="Vector" d="M12.5035 15.6C13.2564 15.6 13.8997 15.3255 14.4336 14.7764C14.9674 14.2274 15.2344 13.5674 15.2344 12.7964C15.2344 12.0255 14.9663 11.3667 14.4301 10.82C13.894 10.2733 13.2494 10 12.4965 10C11.7436 10 11.1003 10.2745 10.5664 10.8236C10.0326 11.3726 9.76562 12.0326 9.76562 12.8036C9.76562 13.5745 10.0337 14.2333 10.5699 14.78C11.106 15.3267 11.7506 15.6 12.5035 15.6ZM12.5 32C8.30729 28.3467 5.17578 24.9533 3.10547 21.82C1.03516 18.6867 0 15.7867 0 13.12C0 9.12 1.25651 5.93333 3.76953 3.56C6.28255 1.18667 9.19271 0 12.5 0C15.8073 0 18.7174 1.18667 21.2305 3.56C23.7435 5.93333 25 9.12 25 13.12C25 15.7867 23.9648 18.6867 21.8945 21.82C19.8242 24.9533 16.6927 28.3467 12.5 32Z" fill="url(#paint0_linear_34_196)"/>
<defs>
<linearGradient id="paint0_linear_34_196" x1="-10" y1="16" x2="50" y2="16" gradientUnits="userSpaceOnUse">
<stop stop-color="#E06845"/>
<stop offset="1" stop-color="#CF4157"/>
<stop offset="1" stop-color="#CF4157"/>
</linearGradient>
</defs>
</svg>
