<svg width="263" height="238" viewBox="0 0 263 238" fill="none" xmlns="http://www.w3.org/2000/svg">
<rect width="263" height="238" rx="16" fill="#1E1E1E"/>
<g clip-path="url(#clip0_143_171)">
<path d="M205 68.375C201.686 68.375 199 65.6887 199 62.375V51.875C199 48.5613 196.314 45.875 193 45.875H47.5C44.1863 45.875 41.5 48.5613 41.5 51.875V169.625C41.5 169.625 41.5 192.125 64 192.125H204.563C204.604 192.125 204.642 192.125 204.683 192.123C205.761 192.076 221.5 191.018 221.5 169.625V74.375C221.5 71.0613 218.814 68.375 215.5 68.375H205ZM64 180.875C52.75 180.875 52.75 169.625 52.75 169.625V63.125C52.75 59.8113 55.4363 57.125 58.75 57.125H181.75C185.064 57.125 187.75 59.8113 187.75 63.125V169.625C187.75 174.333 184.111 180.875 179.403 180.875H64Z" fill="white"/>
<path d="M170.875 79.625H69.625C66.5184 79.625 64 82.1434 64 85.25C64 88.3566 66.5184 90.875 69.625 90.875H170.875C173.982 90.875 176.5 88.3566 176.5 85.25C176.5 82.1434 173.982 79.625 170.875 79.625Z" fill="white"/>
<path d="M159.625 147.125H131.5C128.393 147.125 125.875 149.643 125.875 152.75C125.875 155.857 128.393 158.375 131.5 158.375H159.625C162.732 158.375 165.25 155.857 165.25 152.75C165.25 149.643 162.732 147.125 159.625 147.125Z" fill="white"/>
<path d="M170.875 124.625H131.5C128.393 124.625 125.875 127.143 125.875 130.25C125.875 133.357 128.393 135.875 131.5 135.875H170.875C173.982 135.875 176.5 133.357 176.5 130.25C176.5 127.143 173.982 124.625 170.875 124.625Z" fill="white"/>
<path d="M170.875 102.125H131.5C128.393 102.125 125.875 104.643 125.875 107.75C125.875 110.857 128.393 113.375 131.5 113.375H170.875C173.982 113.375 176.5 110.857 176.5 107.75C176.5 104.643 173.982 102.125 170.875 102.125Z" fill="white"/>
<path d="M108.625 102.125H70C66.6863 102.125 64 104.811 64 108.125V152.375C64 155.689 66.6863 158.375 70 158.375H108.625C111.939 158.375 114.625 155.689 114.625 152.375V108.125C114.625 104.811 111.939 102.125 108.625 102.125Z" fill="white"/>
</g>
<defs>
<clipPath id="clip0_143_171">
<rect width="180" height="180" fill="white" transform="translate(41.5 29)"/>
</clipPath>
</defs>
</svg>
